<mxfile host="app.diagrams.net" modified="2024-05-14T07:40:18.793Z" agent="Mozilla/5.0 (X11; Linux x86_64) AppleWebKit/537.36 (KHTML, like Gecko) Chrome/124.0.0.0 Safari/537.36" etag="JpPHTxGdI3Po7xOTJpz2" version="24.4.0" type="github">
  <diagram name="第 1 页" id="Om_0ez-Mg7cLswbmVXPj">
    <mxGraphModel dx="161" dy="392" grid="1" gridSize="1" guides="1" tooltips="1" connect="1" arrows="1" fold="1" page="1" pageScale="1" pageWidth="827" pageHeight="1169" math="0" shadow="0">
      <root>
        <mxCell id="0" />
        <mxCell id="1" parent="0" />
        <mxCell id="05y2BKctw2ABKMbbaYBs-1" value="&lt;i&gt;Problem&lt;/i&gt;" style="swimlane;fontStyle=1;align=center;verticalAlign=top;childLayout=stackLayout;horizontal=1;startSize=26;horizontalStack=0;resizeParent=1;resizeParentMax=0;resizeLast=0;collapsible=1;marginBottom=0;whiteSpace=wrap;html=1;" vertex="1" parent="1">
          <mxGeometry x="840" y="30" width="214" height="762" as="geometry" />
        </mxCell>
        <mxCell id="05y2BKctw2ABKMbbaYBs-2" value="-currentLambda_:&amp;nbsp;double" style="text;strokeColor=none;fillColor=none;align=left;verticalAlign=top;spacingLeft=4;spacingRight=4;overflow=hidden;rotatable=0;points=[[0,0.5],[1,0.5]];portConstraint=eastwest;whiteSpace=wrap;html=1;" vertex="1" parent="05y2BKctw2ABKMbbaYBs-1">
          <mxGeometry y="26" width="214" height="26" as="geometry" />
        </mxCell>
        <mxCell id="05y2BKctw2ABKMbbaYBs-11" value="-currentChi_:&amp;nbsp;double" style="text;strokeColor=none;fillColor=none;align=left;verticalAlign=top;spacingLeft=4;spacingRight=4;overflow=hidden;rotatable=0;points=[[0,0.5],[1,0.5]];portConstraint=eastwest;whiteSpace=wrap;html=1;" vertex="1" parent="05y2BKctw2ABKMbbaYBs-1">
          <mxGeometry y="52" width="214" height="26" as="geometry" />
        </mxCell>
        <mxCell id="05y2BKctw2ABKMbbaYBs-14" value="-stopThresholdLM_:&amp;nbsp;double" style="text;strokeColor=none;fillColor=none;align=left;verticalAlign=top;spacingLeft=4;spacingRight=4;overflow=hidden;rotatable=0;points=[[0,0.5],[1,0.5]];portConstraint=eastwest;whiteSpace=wrap;html=1;" vertex="1" parent="05y2BKctw2ABKMbbaYBs-1">
          <mxGeometry y="78" width="214" height="26" as="geometry" />
        </mxCell>
        <mxCell id="05y2BKctw2ABKMbbaYBs-16" value="-ni_:&amp;nbsp;double" style="text;strokeColor=none;fillColor=none;align=left;verticalAlign=top;spacingLeft=4;spacingRight=4;overflow=hidden;rotatable=0;points=[[0,0.5],[1,0.5]];portConstraint=eastwest;whiteSpace=wrap;html=1;" vertex="1" parent="05y2BKctw2ABKMbbaYBs-1">
          <mxGeometry y="104" width="214" height="26" as="geometry" />
        </mxCell>
        <mxCell id="05y2BKctw2ABKMbbaYBs-18" value="-problemType_:&amp;nbsp;ProblemType" style="text;strokeColor=none;fillColor=none;align=left;verticalAlign=top;spacingLeft=4;spacingRight=4;overflow=hidden;rotatable=0;points=[[0,0.5],[1,0.5]];portConstraint=eastwest;whiteSpace=wrap;html=1;" vertex="1" parent="05y2BKctw2ABKMbbaYBs-1">
          <mxGeometry y="130" width="214" height="26" as="geometry" />
        </mxCell>
        <mxCell id="05y2BKctw2ABKMbbaYBs-21" value="-Hessian_: MatXX" style="text;strokeColor=none;fillColor=none;align=left;verticalAlign=top;spacingLeft=4;spacingRight=4;overflow=hidden;rotatable=0;points=[[0,0.5],[1,0.5]];portConstraint=eastwest;whiteSpace=wrap;html=1;" vertex="1" parent="05y2BKctw2ABKMbbaYBs-1">
          <mxGeometry y="156" width="214" height="26" as="geometry" />
        </mxCell>
        <mxCell id="05y2BKctw2ABKMbbaYBs-22" value="-b_:&amp;nbsp;VecX" style="text;strokeColor=none;fillColor=none;align=left;verticalAlign=top;spacingLeft=4;spacingRight=4;overflow=hidden;rotatable=0;points=[[0,0.5],[1,0.5]];portConstraint=eastwest;whiteSpace=wrap;html=1;" vertex="1" parent="05y2BKctw2ABKMbbaYBs-1">
          <mxGeometry y="182" width="214" height="26" as="geometry" />
        </mxCell>
        <mxCell id="05y2BKctw2ABKMbbaYBs-23" value="-delta_x_:&amp;nbsp;VecX" style="text;strokeColor=none;fillColor=none;align=left;verticalAlign=top;spacingLeft=4;spacingRight=4;overflow=hidden;rotatable=0;points=[[0,0.5],[1,0.5]];portConstraint=eastwest;whiteSpace=wrap;html=1;" vertex="1" parent="05y2BKctw2ABKMbbaYBs-1">
          <mxGeometry y="208" width="214" height="26" as="geometry" />
        </mxCell>
        <mxCell id="05y2BKctw2ABKMbbaYBs-26" value="-H_prior_:&amp;nbsp;MatXX" style="text;strokeColor=none;fillColor=none;align=left;verticalAlign=top;spacingLeft=4;spacingRight=4;overflow=hidden;rotatable=0;points=[[0,0.5],[1,0.5]];portConstraint=eastwest;whiteSpace=wrap;html=1;" vertex="1" parent="05y2BKctw2ABKMbbaYBs-1">
          <mxGeometry y="234" width="214" height="26" as="geometry" />
        </mxCell>
        <mxCell id="05y2BKctw2ABKMbbaYBs-72" value="-b_prior_: VecX" style="text;strokeColor=none;fillColor=none;align=left;verticalAlign=top;spacingLeft=4;spacingRight=4;overflow=hidden;rotatable=0;points=[[0,0.5],[1,0.5]];portConstraint=eastwest;whiteSpace=wrap;html=1;" vertex="1" parent="05y2BKctw2ABKMbbaYBs-1">
          <mxGeometry y="260" width="214" height="26" as="geometry" />
        </mxCell>
        <mxCell id="05y2BKctw2ABKMbbaYBs-78" value="-Jt_prior_inv_: MatXX" style="text;strokeColor=none;fillColor=none;align=left;verticalAlign=top;spacingLeft=4;spacingRight=4;overflow=hidden;rotatable=0;points=[[0,0.5],[1,0.5]];portConstraint=eastwest;whiteSpace=wrap;html=1;" vertex="1" parent="05y2BKctw2ABKMbbaYBs-1">
          <mxGeometry y="286" width="214" height="26" as="geometry" />
        </mxCell>
        <mxCell id="05y2BKctw2ABKMbbaYBs-77" value="-err_prior_: VecX" style="text;strokeColor=none;fillColor=none;align=left;verticalAlign=top;spacingLeft=4;spacingRight=4;overflow=hidden;rotatable=0;points=[[0,0.5],[1,0.5]];portConstraint=eastwest;whiteSpace=wrap;html=1;" vertex="1" parent="05y2BKctw2ABKMbbaYBs-1">
          <mxGeometry y="312" width="214" height="26" as="geometry" />
        </mxCell>
        <mxCell id="05y2BKctw2ABKMbbaYBs-76" value="-H_pp_schur_: MatXX" style="text;strokeColor=none;fillColor=none;align=left;verticalAlign=top;spacingLeft=4;spacingRight=4;overflow=hidden;rotatable=0;points=[[0,0.5],[1,0.5]];portConstraint=eastwest;whiteSpace=wrap;html=1;" vertex="1" parent="05y2BKctw2ABKMbbaYBs-1">
          <mxGeometry y="338" width="214" height="26" as="geometry" />
        </mxCell>
        <mxCell id="05y2BKctw2ABKMbbaYBs-75" value="-b_pp_schur_: VecX" style="text;strokeColor=none;fillColor=none;align=left;verticalAlign=top;spacingLeft=4;spacingRight=4;overflow=hidden;rotatable=0;points=[[0,0.5],[1,0.5]];portConstraint=eastwest;whiteSpace=wrap;html=1;" vertex="1" parent="05y2BKctw2ABKMbbaYBs-1">
          <mxGeometry y="364" width="214" height="26" as="geometry" />
        </mxCell>
        <mxCell id="05y2BKctw2ABKMbbaYBs-74" value="-H_pp_: MatXX" style="text;strokeColor=none;fillColor=none;align=left;verticalAlign=top;spacingLeft=4;spacingRight=4;overflow=hidden;rotatable=0;points=[[0,0.5],[1,0.5]];portConstraint=eastwest;whiteSpace=wrap;html=1;" vertex="1" parent="05y2BKctw2ABKMbbaYBs-1">
          <mxGeometry y="390" width="214" height="26" as="geometry" />
        </mxCell>
        <mxCell id="05y2BKctw2ABKMbbaYBs-73" value="-b_pp_: VecX" style="text;strokeColor=none;fillColor=none;align=left;verticalAlign=top;spacingLeft=4;spacingRight=4;overflow=hidden;rotatable=0;points=[[0,0.5],[1,0.5]];portConstraint=eastwest;whiteSpace=wrap;html=1;" vertex="1" parent="05y2BKctw2ABKMbbaYBs-1">
          <mxGeometry y="416" width="214" height="26" as="geometry" />
        </mxCell>
        <mxCell id="05y2BKctw2ABKMbbaYBs-71" value="-H_ll_: MatXX" style="text;strokeColor=none;fillColor=none;align=left;verticalAlign=top;spacingLeft=4;spacingRight=4;overflow=hidden;rotatable=0;points=[[0,0.5],[1,0.5]];portConstraint=eastwest;whiteSpace=wrap;html=1;" vertex="1" parent="05y2BKctw2ABKMbbaYBs-1">
          <mxGeometry y="442" width="214" height="26" as="geometry" />
        </mxCell>
        <mxCell id="05y2BKctw2ABKMbbaYBs-28" value="-b_ll_: VecX" style="text;strokeColor=none;fillColor=none;align=left;verticalAlign=top;spacingLeft=4;spacingRight=4;overflow=hidden;rotatable=0;points=[[0,0.5],[1,0.5]];portConstraint=eastwest;whiteSpace=wrap;html=1;" vertex="1" parent="05y2BKctw2ABKMbbaYBs-1">
          <mxGeometry y="468" width="214" height="26" as="geometry" />
        </mxCell>
        <mxCell id="05y2BKctw2ABKMbbaYBs-83" value="-verticies_: HashVertex" style="text;strokeColor=none;fillColor=none;align=left;verticalAlign=top;spacingLeft=4;spacingRight=4;overflow=hidden;rotatable=0;points=[[0,0.5],[1,0.5]];portConstraint=eastwest;whiteSpace=wrap;html=1;" vertex="1" parent="05y2BKctw2ABKMbbaYBs-1">
          <mxGeometry y="494" width="214" height="26" as="geometry" />
        </mxCell>
        <mxCell id="05y2BKctw2ABKMbbaYBs-84" value="-edges_: HashEdge" style="text;strokeColor=none;fillColor=none;align=left;verticalAlign=top;spacingLeft=4;spacingRight=4;overflow=hidden;rotatable=0;points=[[0,0.5],[1,0.5]];portConstraint=eastwest;whiteSpace=wrap;html=1;" vertex="1" parent="05y2BKctw2ABKMbbaYBs-1">
          <mxGeometry y="520" width="214" height="26" as="geometry" />
        </mxCell>
        <mxCell id="05y2BKctw2ABKMbbaYBs-85" value="-vertexToEdge_: HashVertexIdToEdge" style="text;strokeColor=none;fillColor=none;align=left;verticalAlign=top;spacingLeft=4;spacingRight=4;overflow=hidden;rotatable=0;points=[[0,0.5],[1,0.5]];portConstraint=eastwest;whiteSpace=wrap;html=1;" vertex="1" parent="05y2BKctw2ABKMbbaYBs-1">
          <mxGeometry y="546" width="214" height="26" as="geometry" />
        </mxCell>
        <mxCell id="05y2BKctw2ABKMbbaYBs-70" value="-" style="text;strokeColor=none;fillColor=none;align=left;verticalAlign=top;spacingLeft=4;spacingRight=4;overflow=hidden;rotatable=0;points=[[0,0.5],[1,0.5]];portConstraint=eastwest;whiteSpace=wrap;html=1;" vertex="1" parent="05y2BKctw2ABKMbbaYBs-1">
          <mxGeometry y="572" width="214" height="26" as="geometry" />
        </mxCell>
        <mxCell id="05y2BKctw2ABKMbbaYBs-81" value="-" style="text;strokeColor=none;fillColor=none;align=left;verticalAlign=top;spacingLeft=4;spacingRight=4;overflow=hidden;rotatable=0;points=[[0,0.5],[1,0.5]];portConstraint=eastwest;whiteSpace=wrap;html=1;" vertex="1" parent="05y2BKctw2ABKMbbaYBs-1">
          <mxGeometry y="598" width="214" height="26" as="geometry" />
        </mxCell>
        <mxCell id="05y2BKctw2ABKMbbaYBs-82" value="-" style="text;strokeColor=none;fillColor=none;align=left;verticalAlign=top;spacingLeft=4;spacingRight=4;overflow=hidden;rotatable=0;points=[[0,0.5],[1,0.5]];portConstraint=eastwest;whiteSpace=wrap;html=1;" vertex="1" parent="05y2BKctw2ABKMbbaYBs-1">
          <mxGeometry y="624" width="214" height="26" as="geometry" />
        </mxCell>
        <mxCell id="05y2BKctw2ABKMbbaYBs-69" value="-" style="text;strokeColor=none;fillColor=none;align=left;verticalAlign=top;spacingLeft=4;spacingRight=4;overflow=hidden;rotatable=0;points=[[0,0.5],[1,0.5]];portConstraint=eastwest;whiteSpace=wrap;html=1;" vertex="1" parent="05y2BKctw2ABKMbbaYBs-1">
          <mxGeometry y="650" width="214" height="26" as="geometry" />
        </mxCell>
        <mxCell id="05y2BKctw2ABKMbbaYBs-3" value="" style="line;strokeWidth=1;fillColor=none;align=left;verticalAlign=middle;spacingTop=-1;spacingLeft=3;spacingRight=3;rotatable=0;labelPosition=right;points=[];portConstraint=eastwest;strokeColor=inherit;" vertex="1" parent="05y2BKctw2ABKMbbaYBs-1">
          <mxGeometry y="676" width="214" height="8" as="geometry" />
        </mxCell>
        <mxCell id="05y2BKctw2ABKMbbaYBs-4" value="VertexPose()" style="text;strokeColor=none;fillColor=none;align=left;verticalAlign=top;spacingLeft=4;spacingRight=4;overflow=hidden;rotatable=0;points=[[0,0.5],[1,0.5]];portConstraint=eastwest;whiteSpace=wrap;html=1;" vertex="1" parent="05y2BKctw2ABKMbbaYBs-1">
          <mxGeometry y="684" width="214" height="26" as="geometry" />
        </mxCell>
        <mxCell id="05y2BKctw2ABKMbbaYBs-5" value="Plus()" style="text;strokeColor=none;fillColor=none;align=left;verticalAlign=top;spacingLeft=4;spacingRight=4;overflow=hidden;rotatable=0;points=[[0,0.5],[1,0.5]];portConstraint=eastwest;whiteSpace=wrap;html=1;" vertex="1" parent="05y2BKctw2ABKMbbaYBs-1">
          <mxGeometry y="710" width="214" height="26" as="geometry" />
        </mxCell>
        <mxCell id="05y2BKctw2ABKMbbaYBs-6" value="TypeInfo()" style="text;strokeColor=none;fillColor=none;align=left;verticalAlign=top;spacingLeft=4;spacingRight=4;overflow=hidden;rotatable=0;points=[[0,0.5],[1,0.5]];portConstraint=eastwest;whiteSpace=wrap;html=1;" vertex="1" parent="05y2BKctw2ABKMbbaYBs-1">
          <mxGeometry y="736" width="214" height="26" as="geometry" />
        </mxCell>
        <mxCell id="05y2BKctw2ABKMbbaYBs-29" value="&lt;i&gt;ProblemType&lt;/i&gt;" style="swimlane;fontStyle=1;align=center;verticalAlign=top;childLayout=stackLayout;horizontal=1;startSize=26;horizontalStack=0;resizeParent=1;resizeParentMax=0;resizeLast=0;collapsible=1;marginBottom=0;whiteSpace=wrap;html=1;" vertex="1" parent="1">
          <mxGeometry x="1195" y="152" width="170" height="86" as="geometry" />
        </mxCell>
        <mxCell id="05y2BKctw2ABKMbbaYBs-49" value="SLAM_PROBLEM" style="text;strokeColor=none;fillColor=none;align=left;verticalAlign=top;spacingLeft=4;spacingRight=4;overflow=hidden;rotatable=0;points=[[0,0.5],[1,0.5]];portConstraint=eastwest;whiteSpace=wrap;html=1;" vertex="1" parent="05y2BKctw2ABKMbbaYBs-29">
          <mxGeometry y="26" width="170" height="26" as="geometry" />
        </mxCell>
        <mxCell id="05y2BKctw2ABKMbbaYBs-50" value="" style="line;strokeWidth=1;fillColor=none;align=left;verticalAlign=middle;spacingTop=-1;spacingLeft=3;spacingRight=3;rotatable=0;labelPosition=right;points=[];portConstraint=eastwest;strokeColor=inherit;" vertex="1" parent="05y2BKctw2ABKMbbaYBs-29">
          <mxGeometry y="52" width="170" height="8" as="geometry" />
        </mxCell>
        <mxCell id="05y2BKctw2ABKMbbaYBs-51" value="GENERIC_PROBLEM" style="text;strokeColor=none;fillColor=none;align=left;verticalAlign=top;spacingLeft=4;spacingRight=4;overflow=hidden;rotatable=0;points=[[0,0.5],[1,0.5]];portConstraint=eastwest;whiteSpace=wrap;html=1;" vertex="1" parent="05y2BKctw2ABKMbbaYBs-29">
          <mxGeometry y="60" width="170" height="26" as="geometry" />
        </mxCell>
        <mxCell id="05y2BKctw2ABKMbbaYBs-54" value="用于区分hessian矩阵是稀疏的还是稠密的" style="text;html=1;align=left;verticalAlign=middle;resizable=0;points=[];autosize=1;strokeColor=none;fillColor=none;" vertex="1" parent="1">
          <mxGeometry x="1375" y="192" width="240" height="30" as="geometry" />
        </mxCell>
        <mxCell id="05y2BKctw2ABKMbbaYBs-55" value="LM 迭代退出阈值条件" style="text;html=1;align=left;verticalAlign=middle;resizable=0;points=[];autosize=1;strokeColor=none;fillColor=none;" vertex="1" parent="1">
          <mxGeometry x="1055" y="106" width="140" height="30" as="geometry" />
        </mxCell>
        <mxCell id="05y2BKctw2ABKMbbaYBs-56" value="控制 Lambda 缩放大小" style="text;html=1;align=left;verticalAlign=middle;resizable=0;points=[];autosize=1;strokeColor=none;fillColor=none;" vertex="1" parent="1">
          <mxGeometry x="1055" y="131" width="150" height="30" as="geometry" />
        </mxCell>
        <mxCell id="05y2BKctw2ABKMbbaYBs-57" value="整个信息矩阵" style="text;html=1;align=left;verticalAlign=middle;resizable=0;points=[];autosize=1;strokeColor=none;fillColor=none;" vertex="1" parent="1">
          <mxGeometry x="1054" y="187" width="91" height="27" as="geometry" />
        </mxCell>
        <mxCell id="05y2BKctw2ABKMbbaYBs-58" style="edgeStyle=orthogonalEdgeStyle;rounded=0;orthogonalLoop=1;jettySize=auto;html=1;entryX=0;entryY=0.25;entryDx=0;entryDy=0;" edge="1" parent="1" source="05y2BKctw2ABKMbbaYBs-18" target="05y2BKctw2ABKMbbaYBs-29">
          <mxGeometry relative="1" as="geometry" />
        </mxCell>
        <mxCell id="05y2BKctw2ABKMbbaYBs-59" value="先验部分信息" style="text;html=1;align=left;verticalAlign=middle;resizable=0;points=[];autosize=1;strokeColor=none;fillColor=none;" vertex="1" parent="1">
          <mxGeometry x="1054" y="262" width="91" height="27" as="geometry" />
        </mxCell>
        <mxCell id="05y2BKctw2ABKMbbaYBs-79" value="SBA的Pose部分" style="text;html=1;align=left;verticalAlign=middle;resizable=0;points=[];autosize=1;strokeColor=none;fillColor=none;" vertex="1" parent="1">
          <mxGeometry x="1054" y="370" width="106" height="27" as="geometry" />
        </mxCell>
        <mxCell id="05y2BKctw2ABKMbbaYBs-80" value="Hessian 的 Landmark 和 pose 部分" style="text;html=1;align=left;verticalAlign=middle;resizable=0;points=[];autosize=1;strokeColor=none;fillColor=none;" vertex="1" parent="1">
          <mxGeometry x="1054" y="418" width="206" height="27" as="geometry" />
        </mxCell>
        <mxCell id="05y2BKctw2ABKMbbaYBs-86" value="所有顶点" style="text;html=1;align=left;verticalAlign=middle;resizable=0;points=[];autosize=1;strokeColor=none;fillColor=none;" vertex="1" parent="1">
          <mxGeometry x="1055" y="522" width="67" height="27" as="geometry" />
        </mxCell>
        <mxCell id="05y2BKctw2ABKMbbaYBs-87" value="所有边" style="text;html=1;align=left;verticalAlign=middle;resizable=0;points=[];autosize=1;strokeColor=none;fillColor=none;" vertex="1" parent="1">
          <mxGeometry x="1055" y="550" width="55" height="27" as="geometry" />
        </mxCell>
        <mxCell id="05y2BKctw2ABKMbbaYBs-88" value="由顶点 id 查询edge" style="text;html=1;align=left;verticalAlign=middle;resizable=0;points=[];autosize=1;strokeColor=none;fillColor=none;" vertex="1" parent="1">
          <mxGeometry x="1055" y="575" width="122" height="27" as="geometry" />
        </mxCell>
      </root>
    </mxGraphModel>
  </diagram>
</mxfile>
